<svg xmlns="http://www.w3.org/2000/svg" version="1.1" viewBox="0 0 2000.35 2000.35" role="img" aria-label="Électrifions la France">
<defs>
<style>
.st0 { fill: #000091; }
.st1 { fill: #f2ca46; }
.st2 { fill: #fff; }
.st3 { fill: #e1000f; }
</style>
</defs>
<circle class="st2" cx="1000.17" cy="1000.17" r="714.41"/>
<g>
<g>
<polygon class="st0" points="507.57 796.29 543.13 724.12 517.5 711.49 497.3 752.48 477.54 742.74 494.6 708.12 468.97 695.49 451.91 730.11 434.28 721.41 454.47 680.43 428.84 667.8 415.69 694.49 407.08 667.8 391.23 699.97 402.47 721.31 393.27 739.97 507.57 796.29"/>
<polygon class="st0" points="604.8 640.06 580.42 621.59 552.83 658.02 475.63 599.56 454.64 627.28 556.23 704.2 604.8 640.06"/>
<polygon class="st0" points="624.11 582.96 609.4 566.57 638.12 540.8 619.04 519.53 590.31 545.3 577.18 530.67 611.2 500.15 592.11 478.89 532.22 532.61 617.31 627.46 677.2 573.72 658.12 552.45 624.11 582.96"/>
<path class="st0" d="M718.82,542.73c8.7-1.25,17.23-4.25,25.56-8.99,6.34-3.6,11.93-7.93,16.79-13,4.87-5.07,8.81-10.67,11.82-16.77,3.01-6.11,4.96-12.56,5.85-19.35l-34.31-4.36c-.41,5.4-2.01,10.33-4.79,14.77-2.78,4.44-6.54,8.01-11.3,10.71-4.01,2.28-8.07,3.65-12.2,4.12-4.14.47-8.19.11-12.13-1.06-3.95-1.17-7.58-3.13-10.88-5.86-3.3-2.73-6.14-6.21-8.54-10.43-2.34-4.11-3.82-8.3-4.42-12.56-.61-4.26-.41-8.35.57-12.26.99-3.91,2.76-7.53,5.33-10.88,2.57-3.34,5.8-6.12,9.7-8.34,4.75-2.7,9.73-4.13,14.94-4.31,5.21-.16,10.27,1,15.18,3.51l13.71-31.87c-6.29-2.71-12.83-4.33-19.63-4.86-6.79-.54-13.57,0-20.33,1.61-6.77,1.61-13.36,4.25-19.8,7.91-8.33,4.74-15.26,10.53-20.79,17.37-5.53,6.84-9.5,14.3-11.89,22.36-2.4,8.06-3.08,16.37-2.05,24.93,1.03,8.56,3.85,16.9,8.47,25.02,4.68,8.23,10.43,14.97,17.26,20.23,6.83,5.26,14.33,8.95,22.51,11.06,8.19,2.13,16.63,2.55,25.35,1.3Z"/>
<polygon class="st0" points="804.14 401.55 831.63 493.83 864.95 483.9 837.46 391.62 871.82 381.38 862.93 351.55 760.72 382 769.6 411.84 804.14 401.55"/>
<path class="st0" d="M986.52,466.47l40.69-2.74-40.14-49.84c2.44-1.51,4.69-3.2,6.71-5.11,8.23-7.79,11.92-17.98,11.08-30.57-.86-12.72-5.89-22.35-15.08-28.9-9.21-6.56-21.49-9.32-36.86-8.29l-45.22,3.05,8.56,127.13,34.69-2.34-3.11-46.13,6.73-.45,31.97,44.18ZM945.89,394.05l-1.6-23.79,11.62-.79c3.75-.25,6.85.64,9.3,2.66,2.44,2.03,3.79,4.79,4.02,8.3.25,3.63-.68,6.61-2.77,8.94-2.1,2.33-5.08,3.63-8.96,3.89l-11.61.78Z"/>
<rect class="st0" x="999.82" y="389.29" width="127.42" height="34.77" transform="translate(542.6 1419.16) rotate(-83.7)"/>
<polygon class="st0" points="1149.19 436.71 1186.45 446.77 1193.9 419.18 1156.65 409.12 1161.92 389.62 1206.03 401.53 1213.48 373.94 1135.82 352.96 1102.57 475.96 1136.14 485.03 1149.19 436.71"/>
<rect class="st0" x="1175.34" y="436.71" width="127.41" height="34.76" transform="translate(321.82 1402.85) rotate(-66.1)"/>
<path class="st0" d="M1273.65,521.38c1.55,8.35,4.73,16.21,9.5,23.55,4.78,7.35,11.05,13.74,18.8,19.17,7.76,5.43,15.92,9.16,24.51,11.17,8.6,2.02,17.04,2.32,25.38.89,8.33-1.43,16.15-4.39,23.46-8.91,7.31-4.51,13.61-10.54,18.9-18.1,5.29-7.55,8.81-15.53,10.55-23.94,1.74-8.41,1.86-16.77.35-25.09-1.52-8.31-4.66-16.15-9.44-23.5-4.78-7.34-11.05-13.73-18.8-19.16-7.86-5.5-16.05-9.24-24.59-11.22-8.54-1.98-17-2.27-25.38-.88-8.38,1.39-16.23,4.34-23.53,8.85-7.3,4.51-13.61,10.55-18.9,18.1-5.3,7.56-8.81,15.54-10.55,23.95-1.74,8.4-1.84,16.79-.27,25.14ZM1307.93,504.95c1.05-4.15,2.98-8.22,5.77-12.19,2.71-3.87,5.85-7.05,9.43-9.5,3.57-2.46,7.36-4.06,11.37-4.81,4.01-.75,8.05-.7,12.12.15,4.07.85,7.94,2.57,11.62,5.14,3.77,2.65,6.76,5.74,8.96,9.27,2.19,3.53,3.59,7.29,4.21,11.28.62,3.99.38,8.08-.72,12.28-1.09,4.2-2.99,8.24-5.71,12.11-2.71,3.87-5.86,7.04-9.43,9.5-3.58,2.46-7.35,4.08-11.3,4.86-3.96.79-7.95.77-11.97-.05-4.02-.81-7.87-2.51-11.54-5.08-3.88-2.72-6.92-5.84-9.1-9.37-2.19-3.53-3.63-7.32-4.28-11.34-.67-4.02-.48-8.1.58-12.26Z"/>
<polygon class="st0" points="1391.2 639.89 1449.09 592.32 1418.7 673.36 1446.09 706.69 1544.53 625.8 1522.7 599.22 1464.71 646.87 1494.96 565.47 1467.92 532.56 1369.47 613.45 1391.2 639.89"/>
<path class="st0" d="M1597.42,727.86c-1.11-5.93-3.08-11.85-5.92-17.75-3.68-7.66-8.51-13.75-14.47-18.29-5.96-4.54-12.43-7.28-19.42-8.22-6.99-.94-13.87.21-20.64,3.48-4.6,2.21-8.28,4.86-11.03,7.94-2.76,3.08-4.79,6.41-6.09,10-1.31,3.59-2.14,7.32-2.49,11.2-.35,3.87-.41,7.73-.17,11.6.24,3.86.54,7.55.9,11.08.35,3.53.54,6.78.55,9.74,0,2.95-.33,5.48-1.01,7.55-.69,2.08-2.01,3.59-3.98,4.54-2.62,1.26-4.97,1.35-7.04.27-2.07-1.1-3.93-3.33-5.56-6.72-1-2.08-1.7-4.3-2.1-6.67-.4-2.37-.5-4.88-.3-7.53.2-2.66.67-5.31,1.42-7.95.75-2.65,1.74-5.22,2.96-7.69l-31.33-12.18c-3.82,9.11-5.52,18.12-5.07,26.99.43,8.88,3.05,18.3,7.84,28.24,3.84,7.98,8.74,14.3,14.69,18.99,5.96,4.67,12.5,7.41,19.63,8.22,7.13.81,14.27-.44,21.43-3.76,4.7-2.26,8.45-4.95,11.27-8.05,2.81-3.11,4.9-6.47,6.25-10.09,1.35-3.62,2.21-7.36,2.57-11.24.36-3.87.42-7.74.17-11.6-.24-3.85-.54-7.55-.9-11.08-.36-3.54-.54-6.78-.55-9.73-.01-2.96.32-5.48,1-7.56.68-2.08,1.95-3.57,3.82-4.46,2.08-1.01,4.14-.92,6.19.25,2.04,1.17,3.72,3.12,5.04,5.85,1.11,2.3,1.72,4.83,1.84,7.6.12,2.77-.21,5.86-1,9.27-.78,3.4-2.07,7.16-3.87,11.26l31.25,12.02c2.43-5.88,3.99-11.78,4.7-17.72.71-5.93.52-11.86-.59-17.8Z"/>
<polygon class="st0" points="498.3 1379.89 575.16 1320.97 554.01 1293.37 452.88 1370.9 501.84 1434.75 526.1 1416.14 498.3 1379.89"/>
<path class="st0" d="M523.4,1460.9l28.42,23.6,24.79-15.38,34.09,28.32-10.58,27.18,28.42,23.61,46.97-126.62-36.26-30.13-115.86,69.41ZM621.82,1468.84l-19.13-15.89,33.37-20.7-14.24,36.6Z"/>
<polygon class="st0" points="778.47 1513.39 820.36 1531.64 831.77 1505.43 758 1473.31 707.13 1590.13 739.01 1604.01 758.99 1558.12 794.37 1573.53 805.78 1547.33 770.4 1531.92 778.47 1513.39"/>
<path class="st0" d="M895.69,1520.62l-44.24-9.87-27.74,124.36,33.93,7.57,10.07-45.12,6.59,1.47,18.16,51.42,38.94,6.78-23.54-57.05c2.77-.75,5.4-1.75,7.87-3.01,10.1-5.14,16.52-13.87,19.27-26.2,2.77-12.44.67-23.09-6.3-31.99-6.97-8.89-17.98-15.02-33.01-18.37ZM900.21,1563.03c-.79,3.55-2.52,6.15-5.19,7.8-2.68,1.64-5.9,2.04-9.69,1.19l-11.37-2.54,5.2-23.27,11.37,2.53c3.67.82,6.39,2.54,8.16,5.18,1.78,2.63,2.28,5.67,1.52,9.1Z"/>
<path class="st0" d="M995.7,1530.46l-39.77,129.07,36.02,1.66,9.05-31.11,44.29-1.73,11.7,30.96,35.54-5.12-49.72-125.57-47.11,1.84ZM1009.58,1600.59l10.97-37.71,13.88,36.74-24.85.97Z"/>
<polygon class="st0" points="1178.08 1499.44 1199.83 1571.27 1136.26 1512.1 1095.5 1524.46 1132.44 1646.4 1165.19 1636.48 1143.47 1564.76 1206.65 1623.92 1247.94 1611.41 1211 1489.47 1178.08 1499.44"/>
<path class="st0" d="M1341.22,1521.49c-2.68,4.5-6.36,8.16-11.04,10.97-3.96,2.37-8,3.83-12.12,4.4-4.12.56-8.18.3-12.15-.79-3.98-1.08-7.64-2.95-11-5.61-3.37-2.65-6.29-6.06-8.78-10.23-2.43-4.06-4-8.21-4.71-12.46-.71-4.24-.61-8.33.28-12.27.9-3.93,2.59-7.6,5.08-11,2.49-3.4,5.66-6.25,9.51-8.56,4.69-2.81,9.62-4.35,14.83-4.65,5.21-.28,10.29.77,15.26,3.16l12.97-32.17c-6.34-2.57-12.93-4.04-19.72-4.41-6.81-.38-13.57.31-20.3,2.08-6.72,1.77-13.26,4.56-19.61,8.36-8.22,4.94-15.02,10.88-20.39,17.85-5.37,6.97-9.16,14.51-11.37,22.63-2.21,8.11-2.7,16.44-1.48,24.97,1.22,8.53,4.23,16.81,9.04,24.82,4.87,8.12,10.77,14.73,17.72,19.83,6.94,5.11,14.54,8.62,22.77,10.55,8.23,1.93,16.68,2.17,25.37.71,8.67-1.45,17.13-4.64,25.35-9.57,6.25-3.75,11.74-8.21,16.48-13.39,4.75-5.18,8.56-10.86,11.44-17.04,2.87-6.18,4.68-12.67,5.41-19.48l-34.4-3.57c-.3,5.41-1.78,10.37-4.46,14.87Z"/>
<polygon class="st0" points="1427.95 1461.08 1412.94 1444.96 1441.18 1418.66 1421.7 1397.75 1393.46 1424.04 1380.07 1409.66 1413.5 1378.53 1394.03 1357.61 1335.15 1412.43 1421.98 1505.69 1480.86 1450.86 1461.38 1429.94 1427.95 1461.08"/>
<path class="st0" d="M1541.17,1339.29c-3.11-2.12-6.54-3.27-10.29-3.48-3.75-.2-7.36.46-10.82,2-3.47,1.54-6.29,3.91-8.47,7.12-2.19,3.22-3.39,6.72-3.63,10.52-.23,3.8.44,7.41,2.01,10.83,1.56,3.41,3.95,6.21,7.17,8.39,3.22,2.18,6.7,3.38,10.45,3.57,3.75.21,7.35-.5,10.8-2.12,3.44-1.62,6.25-4.03,8.44-7.25,2.19-3.21,3.37-6.7,3.58-10.45.2-3.75-.48-7.33-2.05-10.75-1.57-3.41-3.95-6.21-7.17-8.39Z"/>
<polygon class="st0" points="1451.16 1280.34 1429.07 1312.87 1496.09 1349.6 1509.91 1329.27 1451.16 1280.34"/>
</g>
<path class="st0" d="M1580.76,1318c53.32-96.77,81.96-205.4,79.99-321.92-.99-86.9-13.82-149.11-33.57-206.38l-28.64,11.85c17.77,54.31,30.61,112.57,30.61,194.53,0,97.76-17.77,198.48-76.04,305.13l27.65,16.79ZM1213.42,1385.15l-139.23-196.51c-6.91-9.87-14.81-15.8-26.66-15.8-28.64,0-62.21,47.4-76.04,120.47h-3.95c-23.7-77.02-22.71-171.82-3.95-241.93l-3.95-1.97-98.75,123.43-3.95-.99,9.87-232.06-3.95-1.97-198.48,349.57c-68.14-78.01-109.61-179.72-109.61-291.31,0-245.88,199.47-444.37,444.37-444.37s444.37,198.48,444.37,444.37c0,167.87-92.82,313.03-230.08,389.07ZM423.44,1322.94l27.65-16.79c-59.25-109.61-79-213.3-79-310.07,0-67.15,10.86-134.3,31.6-196.51l-29.62-10.86c-22.71,65.17-34.56,135.28-34.56,207.37,0,96.77,20.74,214.28,83.94,326.86ZM999.14,1472.05c261.68,0,475.96-214.28,475.96-475.96s-214.28-475.96-475.96-475.96-475.96,214.28-475.96,475.96,214.28,475.96,475.96,475.96Z"/>
<path class="st0" d="M1047.52,992.13c20.74,0,37.52-17.77,37.52-37.52s-16.79-37.52-37.52-37.52-36.54,17.77-36.54,37.52,16.79,37.52,36.54,37.52Z"/>
<polygon class="st1" points="1213.42 1295.29 1218.36 1293.32 1177.87 1075.08 1276.62 1075.08 1276.62 1071.13 1128.5 920.05 1124.55 922.02 1148.25 1046.45 1040.61 1046.45 1040.61 1050.4 1213.42 1295.29"/>
<path class="st3" d="M1176.88,915.11c33.57,0,60.24-27.65,60.24-85.91,0-81.96-57.27-171.82-160.96-187.62l-2.96,2.96,18.76,101.71-3.95.99c-46.41-66.16-135.28-110.6-257.73-90.85v3.95c21.72,20.74,39.5,49.37,43.45,69.12l-2.96,1.97c-48.39-4.94-116.52,9.87-157.01,37.52v3.95l99.74,126.4h3.95c45.42-33.57,98.75-61.22,166.88-61.22,53.32,0,87.89,15.8,120.47,33.57,32.59,19.75,51.35,43.45,72.09,43.45Z"/>
</g>
</svg>
